{
    "asset" : {
        "generator" : "Khronos glTF Blender I/O v1.7.33",
        "version" : "2.0"
    },
    "scene" : 0,
    "scenes" : [
        {
            "name" : "Scene",
            "nodes" : [
                39
            ]
        }
    ],
    "nodes" : [
        {
            "name" : "Hat",
            "rotation" : [
                -6.78244571616915e-09,
                2.5872975433654556e-14,
                1.1117293880185536e-14,
                1
            ],
            "scale" : [
                0.9999998211860657,
                0.9999998211860657,
                0.9999998211860657
            ],
            "translation" : [
                0,
                7.62965726852417,
                5.885958671569824e-07
            ]
        },
        {
            "name" : "Head",
            "rotation" : [
                0.07556363940238953,
                -7.315422863030108e-07,
                -6.271654484635292e-08,
                0.9971410036087036
            ],
            "scale" : [
                1,
                0.9999998211860657,
                0.9999999403953552
            ],
            "translation" : [
                5.090830982137397e-14,
                0.45900267362594604,
                -7.365499321565494e-09
            ]
        },
        {
            "children" : [
                1
            ],
            "name" : "Neck",
            "rotation" : [
                -2.0686043100681673e-08,
                0.9949489235877991,
                0.1003824919462204,
                3.1233093977789395e-07
            ],
            "scale" : [
                1,
                1.000000238418579,
                1
            ],
            "translation" : [
                -5.4857312946745077e-14,
                2.427900791168213,
                9.524866584342817e-08
            ]
        },
        {
            "name" : "Fingers02.L",
            "rotation" : [
                -0.008897092193365097,
                0.4164573550224304,
                -0.15367770195007324,
                0.8960287570953369
            ],
            "scale" : [
                0.9999999403953552,
                1,
                0.9999999403953552
            ],
            "translation" : [
                -5.226320354267955e-07,
                0.29616987705230713,
                -2.7657382162260546e-08
            ]
        },
        {
            "children" : [
                3
            ],
            "name" : "Fingers01.L",
            "rotation" : [
                -0.18513448536396027,
                0.2929830849170685,
                -0.18453796207904816,
                0.9196912050247192
            ],
            "scale" : [
                1.0000001192092896,
                1.000000238418579,
                0.9999999403953552
            ],
            "translation" : [
                -3.458067965311784e-07,
                0.8204286694526672,
                2.797696083689516e-07
            ]
        },
        {
            "name" : "Thumb02.L",
            "rotation" : [
                0.013699114322662354,
                -0.0013604435371235013,
                -0.11009595543146133,
                0.9938256144523621
            ],
            "scale" : [
                0.9999999403953552,
                1,
                1
            ],
            "translation" : [
                2.719878722245994e-08,
                0.26703837513923645,
                1.5293071697897176e-08
            ]
        },
        {
            "children" : [
                5
            ],
            "name" : "Thumb01.L",
            "rotation" : [
                0.25669533014297485,
                0.29909640550613403,
                -0.6962496638298035,
                0.5999043583869934
            ],
            "scale" : [
                1,
                0.9999999403953552,
                1.000000238418579
            ],
            "translation" : [
                0.22772683203220367,
                0.5384337902069092,
                -0.005900174845010042
            ]
        },
        {
            "children" : [
                4,
                6
            ],
            "name" : "Hand.L",
            "rotation" : [
                0.08012552559375763,
                0.08210313320159912,
                -0.06640275567770004,
                0.9911759495735168
            ],
            "scale" : [
                0.9999999403953552,
                0.9999999403953552,
                1
            ],
            "translation" : [
                3.8342250263667665e-07,
                2.3018059730529785,
                -7.0089022585762e-08
            ]
        },
        {
            "children" : [
                7
            ],
            "name" : "Lower Arm.L",
            "rotation" : [
                -0.03593724966049194,
                0.2080974280834198,
                -0.15384657680988312,
                0.9652643203735352
            ],
            "scale" : [
                1,
                0.9999998807907104,
                0.9999998807907104
            ],
            "translation" : [
                1.439649253143216e-07,
                2.573117971420288,
                -3.571575462046894e-07
            ]
        },
        {
            "children" : [
                8
            ],
            "name" : "Upper Arm.L",
            "rotation" : [
                -0.7130045294761658,
                -0.20144033432006836,
                -0.6163683533668518,
                0.2667143642902374
            ],
            "scale" : [
                0.9999997615814209,
                1,
                1.0000001192092896
            ],
            "translation" : [
                1.3039703369140625,
                1.8287220001220703,
                -0.23969335854053497
            ]
        },
        {
            "name" : "Fingers02.R",
            "rotation" : [
                -0.008897049352526665,
                -0.41645723581314087,
                0.15367764234542847,
                0.8960286974906921
            ],
            "scale" : [
                1,
                0.9999998211860657,
                1
            ],
            "translation" : [
                8.832877824715979e-07,
                0.29617011547088623,
                4.2957373125318554e-07
            ]
        },
        {
            "children" : [
                10
            ],
            "name" : "Fingers01.R",
            "rotation" : [
                -0.18513478338718414,
                -0.29298293590545654,
                0.18453796207904816,
                0.9196912050247192
            ],
            "scale" : [
                1,
                0.9999998211860657,
                0.9999999403953552
            ],
            "translation" : [
                6.294235390669201e-07,
                0.8204284906387329,
                2.331712494196836e-07
            ]
        },
        {
            "name" : "Thumb02.R",
            "rotation" : [
                0.013699392788112164,
                0.0013604999985545874,
                0.11009594053030014,
                0.9938256144523621
            ],
            "scale" : [
                0.9999999403953552,
                0.9999998807907104,
                0.9999998211860657
            ],
            "translation" : [
                5.366493951441953e-07,
                0.26703789830207825,
                -1.7867755053302403e-09
            ]
        },
        {
            "children" : [
                12
            ],
            "name" : "Thumb01.R",
            "rotation" : [
                0.25669512152671814,
                -0.2990965247154236,
                0.6962497234344482,
                0.5999043583869934
            ],
            "scale" : [
                1.0000001192092896,
                1.000000238418579,
                1
            ],
            "translation" : [
                -0.22772681713104248,
                0.538433849811554,
                -0.0059004249051213264
            ]
        },
        {
            "children" : [
                11,
                13
            ],
            "name" : "Hand.R",
            "rotation" : [
                0.08012561500072479,
                -0.08210300654172897,
                0.06640280783176422,
                0.9911758899688721
            ],
            "scale" : [
                1.0000001192092896,
                1.0000001192092896,
                1
            ],
            "translation" : [
                3.217213304651523e-07,
                2.3018057346343994,
                4.709246468337369e-07
            ]
        },
        {
            "children" : [
                14
            ],
            "name" : "Lower Arm.R",
            "rotation" : [
                -0.03593722730875015,
                -0.20809748768806458,
                0.15384657680988312,
                0.9652643203735352
            ],
            "scale" : [
                0.9999998807907104,
                0.9999999403953552,
                0.9999998807907104
            ],
            "translation" : [
                8.182361455055798e-08,
                2.573118209838867,
                2.1182277976095065e-07
            ]
        },
        {
            "children" : [
                15
            ],
            "name" : "Upper Arm.R",
            "rotation" : [
                -0.7130047678947449,
                0.20144028961658478,
                0.6163679361343384,
                0.2667144238948822
            ],
            "scale" : [
                1.000000238418579,
                1,
                1
            ],
            "translation" : [
                -1.303970456123352,
                1.8287216424942017,
                -0.23969484865665436
            ]
        },
        {
            "children" : [
                2,
                9,
                16
            ],
            "name" : "Chest",
            "rotation" : [
                5.536643143955189e-09,
                -0.9985091686248779,
                -0.05458444729447365,
                7.538532997841685e-08
            ],
            "scale" : [
                1,
                1,
                0.9999999403953552
            ],
            "translation" : [
                2.3203661214665772e-14,
                2.4737918376922607,
                9.313086968276707e-10
            ]
        },
        {
            "name" : "Lower Leg.L",
            "rotation" : [
                2.228824902417159e-09,
                0.9986310601234436,
                -0.052307549864053726,
                4.3618786804699994e-08
            ],
            "scale" : [
                0.9999999403953552,
                0.999998927116394,
                1.000000238418579
            ],
            "translation" : [
                4.0204501061680276e-08,
                2.1254241466522217,
                1.6526179535958363e-08
            ]
        },
        {
            "children" : [
                18
            ],
            "name" : "Upper Leg.L",
            "rotation" : [
                -0.9990158677101135,
                0.001255135633982718,
                -0.0010584096889942884,
                0.044325876981019974
            ],
            "scale" : [
                1.0000001192092896,
                0.9999999403953552,
                0.9999432563781738
            ],
            "translation" : [
                -0.8754392862319946,
                0.005715363193303347,
                0.028471646830439568
            ]
        },
        {
            "name" : "Lower Leg.R",
            "rotation" : [
                2.282920297247415e-09,
                0.9986310601234436,
                -0.05230755731463432,
                4.36950706728112e-08
            ],
            "scale" : [
                0.9999999403953552,
                0.999998927116394,
                1.000000238418579
            ],
            "translation" : [
                -7.90047849363873e-08,
                2.125424385070801,
                2.0185044746767744e-09
            ]
        },
        {
            "children" : [
                20
            ],
            "name" : "Upper Leg.R",
            "rotation" : [
                -0.9990158677101135,
                -0.001255133538506925,
                0.0010579857043921947,
                0.044325876981019974
            ],
            "scale" : [
                1.0000001192092896,
                0.9999999403953552,
                0.9999432563781738
            ],
            "translation" : [
                0.8754392862319946,
                0.005715359002351761,
                0.028472300618886948
            ]
        },
        {
            "children" : [
                17,
                19,
                21
            ],
            "name" : "Torso",
            "rotation" : [
                0.6829742789268494,
                1.3121406539085e-07,
                1.3298000567374402e-07,
                0.7304424047470093
            ],
            "translation" : [
                0,
                0,
                5.611944198608398
            ]
        },
        {
            "name" : "Leg pole target.L",
            "scale" : [
                1,
                0.9999999403953552,
                1
            ],
            "translation" : [
                -0.8754392862319946,
                2.378791332244873,
                3.494629383087158
            ]
        },
        {
            "name" : "Toes.L",
            "rotation" : [
                0.284428209066391,
                0.006183143705129623,
                -0.0018347278237342834,
                0.9586758017539978
            ],
            "scale" : [
                0.9999998807907104,
                0.9999998807907104,
                0.9999999403953552
            ],
            "translation" : [
                3.5017031052575476e-08,
                1.3538522720336914,
                -4.178859853709582e-07
            ]
        },
        {
            "children" : [
                24
            ],
            "name" : "Foot.L",
            "rotation" : [
                -0.2984086573123932,
                -0.006155954673886299,
                0.0019247604068368673,
                0.9544164538383484
            ],
            "scale" : [
                0.9999999403953552,
                0.9999997615814209,
                1
            ],
            "translation" : [
                -0.015304210595786572,
                0.4486224949359894,
                0.7979851365089417
            ]
        },
        {
            "name" : "Leg ik.L",
            "rotation" : [
                -0.2983781099319458,
                0.004782883916050196,
                0.0062371171079576015,
                0.9544153809547424
            ],
            "scale" : [
                0.9999999403953552,
                1,
                0.9999998807907104
            ],
            "translation" : [
                -2.4692941025250548e-08,
                1.3539085388183594,
                1.0953395985779935e-06
            ]
        },
        {
            "children" : [
                26
            ],
            "name" : "Foot Roll.L",
            "rotation" : [
                0.004782885313034058,
                0.298378050327301,
                0.954415500164032,
                0.0062371110543608665
            ],
            "scale" : [
                1,
                0.9999997019767761,
                0.9999992847442627
            ],
            "translation" : [
                -0.0030494993552565575,
                1.5613462924957275,
                0.02678387425839901
            ]
        },
        {
            "name" : "Toes Control.L",
            "rotation" : [
                -0.014614750631153584,
                -3.1387600074594957e-07,
                4.5877088794554766e-09,
                0.999893307685852
            ],
            "translation" : [
                -0.015304267406463623,
                1.5613468885421753,
                0.02678394317626953
            ]
        },
        {
            "children" : [
                25,
                27,
                28
            ],
            "name" : "Leg Control.L",
            "translation" : [
                -0.8723897933959961,
                -0.6554770469665527,
                0.0006260871887207031
            ]
        },
        {
            "name" : "Leg pole target.R",
            "scale" : [
                1,
                0.9999999403953552,
                1
            ],
            "translation" : [
                0.8754392862319946,
                2.378791332244873,
                3.494629383087158
            ]
        },
        {
            "name" : "Toes.R",
            "rotation" : [
                0.2844284474849701,
                -0.006144666112959385,
                0.0018228741828352213,
                0.9586758613586426
            ],
            "translation" : [
                -1.1771817298722453e-07,
                1.3540738821029663,
                -3.071293974699074e-07
            ]
        },
        {
            "children" : [
                31
            ],
            "name" : "Foot.R",
            "rotation" : [
                -0.2984088957309723,
                0.0061170849949121475,
                -0.0019126166589558125,
                0.9544166326522827
            ],
            "scale" : [
                0.9999999403953552,
                0.9999998807907104,
                1
            ],
            "translation" : [
                0.015304053202271461,
                0.4486219882965088,
                0.7979850172996521
            ]
        },
        {
            "name" : "Leg ik.R",
            "rotation" : [
                -0.2983781099319458,
                -0.004782883916050196,
                -0.0062371171079576015,
                0.9544153809547424
            ],
            "scale" : [
                0.9999999403953552,
                1,
                0.9999998807907104
            ],
            "translation" : [
                2.4692941025250548e-08,
                1.3539085388183594,
                1.0953395985779935e-06
            ]
        },
        {
            "children" : [
                33
            ],
            "name" : "Foot Roll.R",
            "rotation" : [
                0.004782885313034058,
                -0.298378050327301,
                -0.954415500164032,
                0.0062371110543608665
            ],
            "scale" : [
                1,
                0.9999997019767761,
                0.9999992847442627
            ],
            "translation" : [
                0.0030494993552565575,
                1.5613462924957275,
                0.02678387425839901
            ]
        },
        {
            "name" : "Toes Control.R",
            "rotation" : [
                -0.014614750631153584,
                -3.1387600074594957e-07,
                4.5877088794554766e-09,
                0.999893307685852
            ],
            "translation" : [
                0.015304207801818848,
                1.5613468885421753,
                0.02678394317626953
            ]
        },
        {
            "children" : [
                32,
                34,
                35
            ],
            "name" : "Leg Control.R",
            "translation" : [
                0.8723897933959961,
                -0.6554770469665527,
                0.0006260871887207031
            ]
        },
        {
            "children" : [
                22,
                23,
                29,
                30,
                36
            ],
            "name" : "Root",
            "rotation" : [
                0,
                0.7071068286895752,
                0.7071068286895752,
                0
            ],
            "translation" : [
                0,
                -5.714080810546875,
                0
            ]
        },
        {
            "mesh" : 0,
            "name" : "Character",
            "skin" : 0
        },
        {
            "children" : [
                38,
                0,
                37
            ],
            "name" : "Armature",
            "scale" : [
                0.13731370866298676,
                0.13731370866298676,
                0.13731370866298676
            ],
            "translation" : [
                -0.08431997150182724,
                0.7899697422981262,
                -0.016159355640411377
            ]
        }
    ],
    "materials" : [
        {
            "doubleSided" : true,
            "name" : "Character",
            "pbrMetallicRoughness" : {
                "baseColorFactor" : [
                    0.800000011920929,
                    0.800000011920929,
                    0.800000011920929,
                    1
                ],
                "metallicFactor" : 0,
                "roughnessFactor" : 0.5
            }
        }
    ],
    "meshes" : [
        {
            "name" : "Cube",
            "primitives" : [
                {
                    "attributes" : {
                        "POSITION" : 0,
                        "NORMAL" : 1,
                        "TEXCOORD_0" : 2,
                        "JOINTS_0" : 3,
                        "WEIGHTS_0" : 4
                    },
                    "indices" : 5,
                    "material" : 0
                }
            ]
        }
    ],
    "skins" : [
        {
            "inverseBindMatrices" : 6,
            "joints" : [
                0,
                37,
                22,
                17,
                2,
                1,
                9,
                8,
                7,
                4,
                3,
                6,
                5,
                16,
                15,
                14,
                11,
                10,
                13,
                12,
                19,
                18,
                21,
                20,
                23,
                29,
                25,
                24,
                27,
                26,
                28,
                30,
                36,
                32,
                31,
                34,
                33,
                35
            ],
            "name" : "Armature"
        }
    ],
    "accessors" : [
        {
            "bufferView" : 0,
            "componentType" : 5126,
            "count" : 3282,
            "max" : [
                0.5777367353439331,
                2.1191158294677734,
                0.48913565278053284
            ],
            "min" : [
                -0.7463766932487488,
                0.005459818057715893,
                -0.511296808719635
            ],
            "type" : "VEC3"
        },
        {
            "bufferView" : 1,
            "componentType" : 5126,
            "count" : 3282,
            "type" : "VEC3"
        },
        {
            "bufferView" : 2,
            "componentType" : 5126,
            "count" : 3282,
            "type" : "VEC2"
        },
        {
            "bufferView" : 3,
            "componentType" : 5121,
            "count" : 3282,
            "type" : "VEC4"
        },
        {
            "bufferView" : 4,
            "componentType" : 5126,
            "count" : 3282,
            "type" : "VEC4"
        },
        {
            "bufferView" : 5,
            "componentType" : 5123,
            "count" : 4944,
            "type" : "SCALAR"
        },
        {
            "bufferView" : 6,
            "componentType" : 5126,
            "count" : 38,
            "type" : "MAT4"
        }
    ],
    "bufferViews" : [
        {
            "buffer" : 0,
            "byteLength" : 39384,
            "byteOffset" : 0
        },
        {
            "buffer" : 0,
            "byteLength" : 39384,
            "byteOffset" : 39384
        },
        {
            "buffer" : 0,
            "byteLength" : 26256,
            "byteOffset" : 78768
        },
        {
            "buffer" : 0,
            "byteLength" : 13128,
            "byteOffset" : 105024
        },
        {
            "buffer" : 0,
            "byteLength" : 52512,
            "byteOffset" : 118152
        },
        {
            "buffer" : 0,
            "byteLength" : 9888,
            "byteOffset" : 170664
        },
        {
            "buffer" : 0,
            "byteLength" : 2432,
            "byteOffset" : 180552
        }
    ],
    "buffers" : [
        {
            "byteLength" : 182984,
            "uri" : "data:application/octet-stream;base64,"
        }
    ]
}
